<?xml version="1.0" standalone="no"?>
<!DOCTYPE svg PUBLIC "-//W3C//DTD SVG 20010904//EN"
 "http://www.w3.org/TR/2001/REC-SVG-20010904/DTD/svg10.dtd">
<svg version="1.0" xmlns="http://www.w3.org/2000/svg"
 width="1000.000000pt" height="1000.000000pt" viewBox="0 0 1000.000000 1000.000000"
 preserveAspectRatio="xMidYMid meet">
<metadata>
Created by potrace 1.14, written by Peter Selinger 2001-2017
</metadata>
<g transform="translate(0.000000,1000.000000) scale(0.100000,-0.100000)"
fill="#000000" stroke="none">
<path d="M1770 9389 c-351 -30 -658 -222 -833 -519 -89 -150 -132 -297 -148
-495 -6 -85 -9 -1303 -7 -3530 l4 -3400 23 -100 c63 -279 225 -517 451 -667
162 -108 320 -161 530 -178 155 -13 6355 -13 6510 0 210 17 368 70 530 178
228 151 390 392 452 672 l23 105 0 3490 0 3490 -23 105 c-85 382 -352 682
-712 799 -183 59 95 55 -3460 57 -1785 1 -3288 -2 -3340 -7z m6725 -87 c96
-28 261 -106 330 -156 213 -154 365 -400 404 -657 9 -55 11 -968 9 -3589 l-3
-3515 -22 -75 c-109 -372 -361 -622 -728 -723 l-80 -22 -3360 0 -3360 0 -80
22 c-119 33 -218 77 -310 137 -231 155 -392 405 -434 677 -9 55 -11 967 -9
3589 l3 3515 23 80 c30 103 100 250 156 329 51 71 180 198 249 245 104 71 279
140 417 164 14 2 1530 4 3370 3 l3345 -1 80 -23z"/>
<path d="M2310 8531 c-36 -9 -78 -23 -95 -29 -16 -7 -43 -18 -60 -24 -55 -21
-189 -115 -248 -175 -103 -104 -161 -199 -212 -348 -38 -108 -47 -323 -20
-443 10 -42 22 -81 27 -87 4 -5 8 -15 8 -23 0 -7 13 -40 30 -73 103 -207 277
-364 485 -436 98 -34 126 -38 285 -38 159 0 187 4 285 38 208 72 375 221 485
433 16 32 30 64 30 71 0 7 4 21 10 31 53 97 53 418 1 547 -5 11 -17 40 -27 65
-27 70 -116 199 -181 263 -62 62 -195 155 -253 177 -19 7 -48 19 -65 26 -111
47 -356 59 -485 25z m605 -285 c106 -49 165 -142 165 -261 0 -166 -119 -285
-285 -285 -306 1 -397 417 -120 546 37 18 68 24 120 24 52 0 83 -6 120 -24z"/>
<path d="M7300 8531 c-36 -9 -78 -23 -95 -29 -16 -7 -43 -18 -60 -24 -55 -21
-189 -115 -248 -175 -103 -104 -161 -199 -212 -348 -38 -108 -47 -323 -20
-443 10 -42 22 -81 27 -87 4 -5 8 -15 8 -23 0 -7 13 -40 30 -73 103 -207 277
-364 485 -436 98 -34 126 -38 285 -38 159 0 187 4 285 38 208 72 375 221 485
433 16 32 30 64 30 71 0 7 4 21 10 31 53 97 53 418 1 547 -5 11 -17 40 -27 65
-27 70 -116 199 -181 263 -62 62 -195 155 -253 177 -19 7 -48 19 -65 26 -111
47 -356 59 -485 25z m605 -285 c106 -49 165 -142 165 -261 0 -166 -119 -285
-285 -285 -306 1 -397 417 -120 546 37 18 68 24 120 24 52 0 83 -6 120 -24z"/>
<path d="M4957 6803 c-4 -3 -7 -78 -7 -165 l0 -158 40 0 40 0 0 134 c0 174 -4
196 -40 196 -14 0 -30 -3 -33 -7z"/>
<path d="M6247 6327 c-42 -74 -77 -139 -77 -146 0 -12 47 -38 54 -30 11 12
156 268 156 276 0 8 -41 33 -53 33 -2 0 -37 -60 -80 -133z"/>
<path d="M3615 6418 c-11 -6 -22 -12 -24 -14 -2 -2 31 -64 74 -139 l77 -135
30 16 c16 8 27 21 25 27 -13 32 -146 252 -153 254 -5 1 -18 -3 -29 -9z"/>
<path d="M4880 5107 l0 -874 -26 -24 c-134 -125 -57 -349 125 -367 62 -6 147
31 180 77 l22 31 590 0 589 0 0 105 0 105 -588 0 -588 0 -47 45 -47 45 0 865
0 865 -105 0 -105 0 0 -873z"/>
<path d="M7220 5399 c-161 -94 -152 -87 -140 -110 6 -11 17 -22 25 -25 12 -5
213 104 244 132 13 11 13 17 1 39 -7 14 -16 25 -19 25 -3 0 -53 -28 -111 -61z"/>
<path d="M2605 5424 c-9 -14 -15 -27 -13 -29 6 -6 214 -128 249 -145 l36 -19
16 29 17 28 -139 81 c-77 45 -142 81 -144 81 -3 0 -12 -12 -22 -26z"/>
<path d="M2224 4086 c-3 -8 -4 -25 -2 -38 3 -23 4 -23 176 -26 l172 -2 0 40 0
40 -170 0 c-139 0 -172 -3 -176 -14z"/>
<path d="M7420 4060 l0 -41 143 3 142 3 0 35 0 35 -142 3 -143 3 0 -41z"/>
<path d="M2725 2803 c-71 -41 -132 -77 -134 -79 -8 -7 19 -54 30 -54 10 0 216
115 268 149 12 8 12 13 -3 35 -9 14 -20 26 -24 26 -4 -1 -65 -35 -137 -77z"/>
<path d="M7096 2838 c-9 -12 -16 -26 -16 -29 0 -8 223 -139 249 -146 12 -3 21
4 29 23 7 14 11 28 10 29 -9 7 -250 145 -253 145 -2 0 -11 -10 -19 -22z"/>
<path d="M3659 1844 l-72 -127 24 -18 c19 -14 27 -15 36 -6 16 16 143 236 143
247 0 10 -33 30 -49 30 -5 0 -42 -57 -82 -126z"/>
<path d="M6192 1942 l-22 -17 62 -105 c33 -58 67 -117 75 -132 19 -37 25 -40
55 -20 l26 17 -77 134 c-42 74 -81 136 -87 138 -5 1 -19 -5 -32 -15z"/>
<path d="M4950 1461 l0 -171 38 0 37 0 0 168 0 167 -37 3 -38 3 0 -170z"/>
</g>
</svg>
